<?xml version="1.0" encoding="utf-8"?>
<?xml-stylesheet type="text/xsl" href="rss1.xsl"?>
<rss version="2.0" xmlns:atom="http://www.w3.org/2005/Atom" xmlns:content="http://purl.org/rss/1.0/modules/content/" xmlns:dc="http://purl.org/dc/elements/1.1/" xmlns:media="http://search.yahoo.com/mrss/">
<channel>
 <title>Getty</title>
 <link>http://www.gettyimg.com/</link>
 <atom:link href="http://www.gettyimg.com/" rel="self" type="application/rss+xml" />

 
                <item>
                <title><![CDATA[【UPSCALED】BLACKPINK &amp; Selena Gomez - Ice Cream [4K AI Upscale HEVC 10-bit | PCM 24-bit | DD+ Dolby Atmos]]]></title>
                <link><![CDATA[https://sharemania.us/threads/blackpink-selena-gomez-ice-cream-4k-ai-upscale-hevc-10-bit-pcm-24-bit-dd-dolby-atmos.222947/]]></link>
                <description><![CDATA[<article>
<blockquote class="messageText SelectQuoteContainer ugc baseHtml">
<b><img src="https://images2.imgbox.com/90/9c/3B1UV0Tv_o.jpg" class="bbCodeImage LbImage" alt="[​IMG]" data-url="https://images2.imgbox.com/90/9c/3B1UV0Tv_o.jpg" style=""> <br>
<br>
Genre: <span style="color: #0059b3">Electronic, Hip Hop, Pop</span> <br>
Style: <span style="color: #0059b3">K-pop</span> <br>
Year: <span style="color: #0059b3">2020</span> <br>
Video Source: <span style="color: #0059b3">Master, ProRes 1080p</span><br>
Audio Source: <span style="color: #0059b3">Qobuz and Apple Music, thanks ZenKenShin</span></b><br>
<br>
"<b>Ice Cream</b>" is a song by South Korean girl group Blackpink and American singer Selena Gomez. It was released on August 28, 2020, through YG Entertainment and Interscope Records, as the second single from the group's first Korean-language studio album, <i>The Album</i> (2020). The song was written by Selena Gomez, Teddy, Tommy Brown, Ariana Grande, Victoria Monét, Bekuh Boom, 24, Steven Franks, while Brown, Teddy, 24 and Franks produced the song. "Ice Cream" is an electropop and bubblegum pop song with elements of trap. Lyrically, the song mainly consists of ice cream-related double entendres.<br>
<br>
"Ice Cream" debuted and peaked at number 13 on the US <i>Billboard</i> Hot 100, becoming the first single by a female Korean act to peak inside the top twenty of the chart and subsequently becoming the longest-charting song by a female Korean act on the Hot 100. Elsewhere, the song has peaked within the top ten on both <i>Billboard</i> Global 200 and Global Excl. U.S., as well as charts in South Korea, El Salvador, Hungary, Malaysia and Singapore. It also has figured within the record charts in other 22 countries. An official music video for the song was released on August 28, 2020. It was nominated for Best Collaboration at the MTV Europe Music Awards, Music Video of 2020 at the People's Choice Awards, and Best K-Pop at the 2021 MTV Video Music Awards.<br>
<br>
The music video for "Ice Cream"; the music video was released on August 28 on the group's official YouTube channel. It was directed by frequent director and collaborator Seo Hyun-seung and it garnered 79.08 million views in its first 24 hours, making it the third biggest 24-hour debut for a music video on the platform at the time, and a second personal best for the group behind their June 2020 single "How You Like That", which received 86.3 million views in its first 24 hours. The video debuted at number one on the Global YouTube Music Videos Chart. Behind-the-scenes videos of filming were released separately by Blackpink and Gomez on August 29. Blackpink's scenes were filmed in South Korea, while the scenes featuring Gomez were filmed separately in the United States due to the COVID-19 pandemic.<br>
<br>
<b>Release Info</b><br>
The video track is upscaled to 4K with Topaz Video AI and encoded to HEVC 10-bit.<br>
The PCM track is lossless (Qobuz HiRes, 24-bit), synced with Adobe Audition.<br>
The Dolby Atmos track is lossy (Dolby Digital Plus), synced by muxing.<br>
The timed lyrics are synced and edited to match the music video.<br>
Enable the subtitles to see the lyrics.<br>
<br>
<div class="ToggleTriggerAnchor bbCodeSpoilerContainer">
<button type="button" class="button bbCodeSpoilerButton ToggleTrigger Tooltip JsOnly" data-target="> .SpoilerTarget"><span>Spoiler: <span class="SpoilerTitle">Media Info</span></span></button>
<div class="SpoilerTarget bbCodeSpoilerText">
<div class="bbCodeBlock bbCodeCode">
<div class="type">Code:</div>
<pre>General
Unique ID                      : 286093645296785754623985811442643617582 (0xD73BA1C01BDBDD97BF189F12F6E5C72E)
Complete name                  : BLACKPINK &amp; Selena Gomez - Ice Cream.mkv
Format                         : Matroska
Format version                 : Version 4 / Version 2
File size                      : 483 MiB
Duration                       : 3 min 2 s
Overall bit rate               : 22.2 Mb/s
Frame rate                     : 23.976 FPS
Encoded date                   : 2023-06-19 11:14:48 UTC
Writing application            : mkvmerge v76.0 ('Celebration') 64-bit
Writing library                : libebml v1.4.4 + libmatroska v1.7.1

Video
ID                             : 1
Format                         : HEVC
Format/Info                    : High Efficiency Video Coding
Format profile                 : Main 10@L5@Main
Codec ID                       : V_MPEGH/ISO/HEVC
Duration                       : 3 min 2 s
Bit rate                       : 19.2 Mb/s
Width                          : 3 840 pixels
Height                         : 2 160 pixels
Display aspect ratio           : 16:9
Frame rate mode                : Constant
Frame rate                     : 23.976 (24000/1001) FPS
Color space                    : YUV
Chroma subsampling             : 4:2:0
Bit depth                      : 10 bits
Bits/(Pixel*Frame)             : 0.096
Stream size                    : 417 MiB (86%)
Language                       : English
Default                        : No
Forced                         : No
Color range                    : Limited
Color primaries                : BT.709
Transfer characteristics       : BT.709
Matrix coefficients            : BT.709

Audio #1
ID                             : 2
Format                         : PCM
Format settings                : Little / Signed
Codec ID                       : A_PCM/INT/LIT
Duration                       : 3 min 2 s
Bit rate mode                  : Constant
Bit rate                       : 2 304 kb/s
Channel(s)                     : 2 channels
Sampling rate                  : 48.0 kHz
Frame rate                     : 25.000 FPS (1920 SPF)
Bit depth                      : 24 bits
Stream size                    : 50.2 MiB (10%)
Title                          : 24-bit 48 kHz
Language                       : English
Default                        : Yes
Forced                         : No

Audio #2
ID                             : 3
Format                         : E-AC-3 JOC
Format/Info                    : Enhanced AC-3 with Joint Object Coding
Commercial name                : Dolby Digital Plus with Dolby Atmos
Codec ID                       : A_EAC3
Duration                       : 2 min 55 s
Bit rate mode                  : Constant
Bit rate                       : 768 kb/s
Channel(s)                     : 6 channels
Channel layout                 : L R C LFE Ls Rs
Sampling rate                  : 48.0 kHz
Frame rate                     : 31.250 FPS (1536 SPF)
Compression mode               : Lossy
Delay relative to video        : 1 s 465 ms
Stream size                    : 16.1 MiB (3%)
Title                          : Dolby Digital Plus with Dolby Atmos
Language                       : English
Service kind                   : Complete Main
Default                        : No
Forced                         : No
Complexity index               : 16
Number of dynamic objects      : 15
Bed channel count              : 1 channel
Bed channel configuration      : LFE

Text
ID                             : 4
Format                         : UTF-8
Codec ID                       : S_TEXT/UTF8
Codec ID/Info                  : UTF-8 Plain Text
Duration                       : 2 min 43 s
Bit rate                       : 121 b/s
Frame rate                     : 0.386 FPS
Count of elements              : 63
Stream size                    : 2.43 KiB (0%)
Title                          : Lyrics
Language                       : English
Default                        : No
Forced                         : No
</pre>
</div></div>
</div><br>
<div class="bbCodeBlock bbCodeVfcHH HiddenContent">
<div class="attribution type">Hidden Content:</div>
<blockquote>You must reply before you can see the hidden data contained here.</blockquote>
</div>
<div class="messageTextEndMarker">&nbsp;</div>
</blockquote>
</article>]]></description>
                <author><![CDATA[ADHDerby]]></author>
                </item>

                
                <item>
                <title><![CDATA[【Requests】[REQ CAP] - Paramore - Full Live Set Bonnaroo 2023 (Streamed on HULU) [REQ RIP/CAP HD]]]></title>
                <link><![CDATA[https://sharemania.us/threads/paramore-full-live-set-bonnaroo-2023-streamed-on-hulu-req-rip-cap-hd.222926/]]></link>
                <description><![CDATA[<article>
<blockquote class="messageText SelectQuoteContainer ugc baseHtml">
Paramores 1 hour set at Bonnaroo recorded and streamed on the Hulu app-channel. Can someone please try to rip/cap it on HD (HQ audio if possible since its stream) The paramore stans will be so thankful .<br>
<br>
<iframe data-s9e-mediaembed="twitter" allowfullscreen="" onload="var a=Math.random();window.addEventListener('message',function(b){if(b.data.id==a)style.height=b.data.height+'px'});contentWindow.postMessage('s9e:'+a,'https://s9e.github.io')" scrolling="no" src="https://s9e.github.io/iframe/twitter.min.html#1669758812956373000" style="background: url(&quot;https://abs.twimg.com/favicons/favicon.ico&quot;) 50% 50% no-repeat; border: 0px; height: 640px; max-width: 500px; width: 100%;"></iframe><br>
<br>
Setlist:<br>
<img src="https://pbs.twimg.com/media/Fy8v8snXoAACv4e?format=jpg&amp;name=large" class="bbCodeImage LbImage" alt="[​IMG]" data-url="https://pbs.twimg.com/media/Fy8v8snXoAACv4e?format=jpg&amp;name=large" style=""><br>
<br>
<img src="https://pbs.twimg.com/media/Fy8e4IkWAAI2jow?format=jpg&amp;name=large" class="bbCodeImage LbImage" alt="[​IMG]" data-url="https://pbs.twimg.com/media/Fy8e4IkWAAI2jow?format=jpg&amp;name=large" style="">
<div class="messageTextEndMarker">&nbsp;</div>
</blockquote>
</article>]]></description>
                <author><![CDATA[Bemi Rexhvato]]></author>
                </item>

                </channel></rss>